<?xml version="1.0" encoding="UTF-8" standalone="no"?>
<svg
   width="32"
   height="42.499943"
   viewBox="0 0 32 42.499943"
   fill="none"
   version="1.1"
   id="svg3"
   sodipodi:docname="edge-node-marker.svg"
   xml:space="preserve"
   inkscape:version="1.4.2 (f4327f4, 2025-05-13)"
   xmlns:inkscape="http://www.inkscape.org/namespaces/inkscape"
   xmlns:sodipodi="http://sodipodi.sourceforge.net/DTD/sodipodi-0.dtd"
   xmlns="http://www.w3.org/2000/svg"
   xmlns:svg="http://www.w3.org/2000/svg"><defs
     id="defs3" /><sodipodi:namedview
     id="namedview3"
     pagecolor="#ffffff"
     bordercolor="#111111"
     borderopacity="1"
     inkscape:showpageshadow="0"
     inkscape:pageopacity="0"
     inkscape:pagecheckerboard="1"
     inkscape:deskcolor="#d1d1d1"
     inkscape:zoom="4.5577644"
     inkscape:cx="-39.931858"
     inkscape:cy="39.493046"
     inkscape:window-width="2560"
     inkscape:window-height="1494"
     inkscape:window-x="-11"
     inkscape:window-y="-11"
     inkscape:window-maximized="1"
     inkscape:current-layer="svg3" /><path
     d="M 16,40.5 C 16,40.5 30,29.1 30,16.3 30,8.4 23.7,2 16,2 8.3,2 2,8.4 2,16.3 2,29.1 16,40.5 16,40.5 Z"
     fill="#1abb9c"
     id="path1" /><path
     d="M 16,40.5 C 16,40.5 30,29.1 30,16.3 30,8.4 23.7,2 16,2 8.3,2 2,8.4 2,16.3 2,29.1 16,40.5 16,40.5 Z"
     stroke="#ffffff"
     stroke-width="4"
     stroke-linejoin="round"
     id="path2" /><circle
     cx="16"
     cy="17.25"
     r="8"
     fill="#ffffff"
     fill-opacity="0.18"
     id="circle2" /><g
     style="fill:#ffffff;fill-opacity:1"
     id="g3"
     transform="matrix(1.0188619,0,0,1.0188619,3.7736572,5.0236572)"><path
       d="M 6.99,11 3,15 6.99,19 V 16 H 14 V 14 H 6.99 Z M 21,9 17.01,5 V 8 H 10 v 2 h 7.01 v 3 z"
       id="path1-4"
       style="fill:#ffffff;fill-opacity:1" /></g></svg>
